<svg width="18" height="22" viewBox="0 0 18 22" fill="none" xmlns="http://www.w3.org/2000/svg">
<path d="M16.5368 16.9188L15.6443 17.8113C15.8926 18.3208 16.0245 18.8838 16.0245 19.4673V21.6332C16.0245 21.8357 15.8604 21.9999 15.6579 21.9999C15.4554 21.9999 15.2912 21.8357 15.2912 21.6332V19.4673C15.2912 17.8625 14.0574 16.554 12.4913 16.4271L10.9687 21.7344C10.9225 21.8952 10.7758 22 10.6164 22C10.3726 22 10.1966 21.7663 10.2638 21.5321L11.747 16.362C11.1504 16.2313 10.6304 15.8659 10.3032 15.3287C10.1978 15.1557 10.2526 14.9301 10.4255 14.8248C10.5984 14.7194 10.824 14.7742 10.9294 14.9471C11.1961 15.385 11.6521 15.6546 12.1602 15.6803C12.2057 15.6726 12.2532 15.6736 12.3007 15.6843C13.4455 15.7022 14.5241 16.2271 15.2477 17.1708L16.0182 16.4002C16.3174 16.101 16.3453 15.6249 16.0831 15.2928C15.5017 14.5568 15.6495 13.6664 16.207 13.1408C16.5201 12.8457 16.5555 12.3507 16.2876 12.0139L15.7598 11.3504C15.442 10.9509 15.3385 10.4201 15.483 9.93048L15.8242 8.77411C15.9458 8.36203 15.7377 7.9284 15.3401 7.76551L14.8898 7.58099C14.2984 7.33862 13.9162 6.76923 13.9162 6.13032V4.95016C13.9162 2.62491 12.0246 0.73333 9.69958 0.73333H7.49959C5.17452 0.73333 3.28294 2.625 3.28294 4.95016V6.13032C3.28294 6.76923 2.90083 7.33862 2.30944 7.58099L1.85904 7.76551C1.46148 7.9284 1.2534 8.36203 1.37495 8.77411L1.71618 9.93048C1.86064 10.4201 1.7572 10.9509 1.43939 11.3504L0.911576 12.0139C0.643727 12.3507 0.679156 12.8456 0.992196 13.1408C1.55063 13.6673 1.69679 14.5575 1.11595 15.2929C0.853781 15.625 0.881693 16.101 1.18089 16.4002L1.95144 17.1708C2.66084 16.2456 3.74842 15.6828 4.95905 15.6828C5.80527 15.6828 6.49121 15.001 6.49121 14.1547V14.0584C4.97565 13.3367 3.96209 11.9071 3.7415 10.3057C3.71386 10.1051 3.85411 9.92003 4.05467 9.8924C4.25519 9.86471 4.44031 10.005 4.46795 10.2056C4.75033 12.2556 6.5265 13.8015 8.59953 13.8015C10.8994 13.8015 12.7704 11.9305 12.7704 9.63069V7.37034C11.9131 7.05963 11.1654 6.46201 10.677 5.62666C8.90877 7.6809 6.38401 8.87595 3.71006 8.98298C3.50816 8.99113 3.33716 8.83393 3.32904 8.63125C3.32093 8.4289 3.47841 8.25831 3.68077 8.25024C6.32126 8.14464 8.80918 6.89431 10.4622 4.72755C10.6349 4.50109 10.9895 4.55009 11.0945 4.81468C11.4794 5.78437 12.2877 6.48159 13.2373 6.7514C13.377 6.79055 13.4903 6.91654 13.5023 7.07627C13.5046 7.10634 13.504 9.65347 13.5035 9.6691C13.4785 12.9003 10.3584 15.2577 7.21684 14.335C7.16917 14.9425 6.87997 15.5145 6.37626 15.9191L8.59953 17.6404L9.90715 16.628C10.0674 16.5041 10.2976 16.5334 10.4215 16.6935C10.5455 16.8536 10.5162 17.0839 10.3561 17.2079L8.9662 18.2839V20.8999C8.9662 21.1024 8.80203 21.2666 8.59953 21.2666C8.39704 21.2666 8.23287 21.1024 8.23287 20.8999V18.2839L5.67245 16.3017C5.27475 16.4329 4.92422 16.4162 4.95915 16.4162C3.27276 16.4161 1.9079 17.7808 1.9079 19.4674V21.6332C1.9079 21.8357 1.74372 21.9999 1.54123 21.9999C1.33874 21.9999 1.17457 21.8357 1.17457 21.6332V19.4673C1.17457 18.8838 1.30647 18.3208 1.55484 17.8113L0.662335 16.9188C0.140067 16.3965 0.00215503 15.5198 0.571632 14.7988C0.841635 14.4568 0.80616 13.9733 0.48904 13.6744C-0.0990904 13.1198 -0.165594 12.19 0.337608 11.5574L0.865422 10.8938C1.03459 10.6812 1.08964 10.3986 1.01273 10.138L0.671502 8.9816C0.44307 8.20743 0.834026 7.39289 1.58088 7.08686L2.03128 6.90233C2.34606 6.77336 2.54947 6.47026 2.54947 6.13027V4.95012C2.54965 2.22066 4.77022 0 7.49963 0H9.69962C12.429 0 14.6496 2.22057 14.6496 4.94998V6.13032C14.6496 6.47031 14.853 6.7734 15.1678 6.90243L15.6182 7.0869C16.3651 7.39293 16.756 8.20748 16.5276 8.98165L16.1864 10.138C16.1095 10.3987 16.1645 10.6812 16.3337 10.8939L16.8615 11.5574C17.3647 12.19 17.2982 13.1199 16.7101 13.6744C16.393 13.9733 16.3575 14.4568 16.6275 14.7989C17.1876 15.5078 17.0689 16.3867 16.5368 16.9188ZM5.83584 17.6378C5.7808 17.4429 5.57821 17.3294 5.38333 17.3846C5.18845 17.4396 5.07506 17.6422 5.1301 17.8371L6.2301 21.7329C6.28514 21.9278 6.48777 22.0411 6.68261 21.9861C6.87749 21.9311 6.99088 21.7285 6.93584 21.5336L5.83584 17.6378Z" fill="black"/>
</svg>
