<svg width="15" height="12" viewBox="0 0 15 12" fill="none" xmlns="http://www.w3.org/2000/svg">
<path d="M2.09767 0V2.13916H0V11.2461H12.8191V9.1068H14.9168V0H2.09767ZM11.9451 10.372H0.874029V8.91892L4.35844 6.85408L7.95306 9.21119L10.166 7.40055L11.9451 8.87527V10.372ZM11.9451 7.74003L10.1697 6.26833L7.89598 8.12865L4.38183 5.82427L0.874029 7.90295V3.01319H11.9451V7.74003ZM14.0427 8.23277H12.8191V2.13916H2.9717V0.87403H14.0427V8.23277Z" fill="black"/>
<path d="M7.78781 3.6626C7.01203 3.6626 6.38086 4.29376 6.38086 5.06958C6.38086 5.8454 7.01203 6.47656 7.78781 6.47656C8.56363 6.47656 9.1948 5.8454 9.1948 5.06958C9.1948 4.29376 8.56363 3.6626 7.78781 3.6626ZM7.78781 5.60254C7.49397 5.60254 7.25489 5.36346 7.25489 5.06958C7.25489 4.7757 7.49397 4.53663 7.78781 4.53663C8.08169 4.53663 8.32077 4.7757 8.32077 5.06958C8.32077 5.36346 8.08169 5.60254 7.78781 5.60254Z" fill="black"/>
</svg>
