<svg width="16" height="28" viewBox="0 0 16 28" fill="none" xmlns="http://www.w3.org/2000/svg">
<path d="M14.6875 9.48544L10.8372 4.61691C10.1818 3.79184 9.23382 3.24764 8.19224 3.0955V0.58516C8.19224 0.263322 7.92892 0 7.60708 0C7.28524 0 7.02192 0.263322 7.02192 0.58516V3.0955C5.98033 3.24179 5.03238 3.78599 4.38285 4.61691L0.520792 9.49129C0.187251 9.91846 0 10.4451 0 10.9893V25.6125C0.0058516 26.9349 1.08255 28.0058 2.40501 27.9999C2.41086 27.9999 2.41086 27.9999 2.41671 27.9999H12.7916C14.1141 28.0116 15.1966 26.9466 15.2083 25.6242C15.2083 25.6183 15.2083 25.6183 15.2083 25.6125V10.9893C15.2083 10.4451 15.0211 9.91846 14.6875 9.48544ZM7.60708 8.80081C8.54919 8.80081 9.3099 9.56151 9.3099 10.5036C9.3099 11.4457 8.54919 12.2064 7.60708 12.2064C6.66497 12.2064 5.90426 11.4457 5.90426 10.5036C5.90426 9.56737 6.66497 8.80081 7.60708 8.80081ZM14.0438 25.6125C14.0438 26.2971 13.4821 26.8296 12.7974 26.8296H2.41671C1.73207 26.8296 1.17032 26.2971 1.17032 25.6125V10.9893C1.17032 10.7084 1.26395 10.4334 1.43949 10.2169L5.2957 5.34251C5.72872 4.79831 6.33728 4.41796 7.02192 4.28337V7.689C5.46539 8.01084 4.47062 9.53226 4.79246 11.0888C5.1143 12.6453 6.63571 13.6401 8.19224 13.3182C9.74876 12.9964 10.7435 11.475 10.4217 9.91846C10.1876 8.80081 9.31575 7.92307 8.19224 7.689V4.28337C8.43215 4.33018 8.66622 4.41211 8.88858 4.51744C9.28649 4.71054 9.63758 4.99142 9.91261 5.34251L13.7747 10.211C13.9502 10.4334 14.0438 10.7084 14.0438 10.9893V25.6125Z" fill="black"/>
<path d="M9.4737 21.3407C9.21623 20.5273 8.46138 19.9714 7.60704 19.9714C7.17402 19.9714 6.82293 19.6203 6.82293 19.1873C6.82293 18.7543 7.17402 18.4032 7.60704 18.4032C8.04006 18.4032 8.39116 18.7543 8.39116 19.1873C8.39116 19.5092 8.65448 19.7725 8.97632 19.7725C9.29815 19.7725 9.56148 19.5092 9.56148 19.1873C9.56148 18.333 9.00557 17.5781 8.1922 17.3207V17.0632C8.1922 16.7413 7.92888 16.478 7.60704 16.478C7.2852 16.478 7.02188 16.7413 7.02188 17.0632V17.3207C5.992 17.6425 5.41854 18.7426 5.74038 19.7725C5.99785 20.5858 6.75271 21.1418 7.60704 21.1418C8.04006 21.1418 8.39116 21.4928 8.39116 21.9259C8.39116 22.3589 8.04006 22.71 7.60704 22.71C7.17402 22.71 6.82293 22.3589 6.82293 21.9259C6.82293 21.604 6.55961 21.3407 6.23777 21.3407C5.91593 21.3407 5.65261 21.604 5.65261 21.9259C5.65261 22.7802 6.20851 23.5351 7.02188 23.7925V24.0851C7.02188 24.4069 7.2852 24.6703 7.60704 24.6703C7.92888 24.6703 8.1922 24.4069 8.1922 24.0851V23.7925C9.22208 23.4707 9.79554 22.3706 9.4737 21.3407Z" fill="black"/>
</svg>
