<svg width="334" height="450" viewBox="0 0 334 450" fill="none" xmlns="http://www.w3.org/2000/svg">
<path d="M232.054 178.031C220.022 178.381 208.262 181.674 197.817 187.618C187.372 193.562 178.564 201.974 172.172 212.108C165.78 222.243 162.003 233.787 161.174 245.719C160.345 257.65 162.49 269.601 167.42 280.512C172.35 291.423 179.912 300.957 189.436 308.271C198.96 315.584 210.152 320.451 222.022 322.44C233.891 324.429 246.071 323.479 257.482 319.674C268.894 315.869 279.185 309.326 287.444 300.625L282.119 295.636C274.686 303.466 265.424 309.355 255.154 312.779C244.883 316.204 233.921 317.059 223.239 315.269C212.557 313.479 202.483 309.099 193.912 302.516C185.34 295.934 178.534 287.353 174.098 277.533C169.661 267.713 167.73 256.958 168.476 246.219C169.222 235.481 172.622 225.091 178.374 215.97C184.127 206.849 192.054 199.278 201.455 193.929C210.856 188.579 221.439 185.616 232.268 185.301L232.054 178.031Z" fill="#1A1A1A"/>
<path d="M232.05 153.041C245.27 152.661 258.433 154.918 270.76 159.68C283.087 164.442 294.327 171.612 303.817 180.766C313.306 189.92 320.852 200.872 326.007 212.974C331.162 225.076 333.822 238.082 333.83 251.223C333.838 264.364 331.194 277.374 326.053 289.482C320.913 301.59 313.381 312.55 303.903 321.716C294.424 330.881 283.192 338.064 270.871 342.841C258.55 347.618 245.39 349.891 232.169 349.527L232.361 342.649C244.657 342.989 256.896 340.875 268.354 336.432C279.813 331.99 290.259 325.309 299.073 316.785C307.888 308.262 314.893 298.068 319.674 286.808C324.454 275.547 326.914 263.448 326.906 251.227C326.899 239.006 324.425 226.91 319.631 215.655C314.836 204.401 307.819 194.215 298.994 185.702C290.169 177.189 279.715 170.521 268.251 166.092C256.787 161.664 244.545 159.564 232.25 159.918L232.05 153.041Z" fill="#1A1A1A"/>
<path d="M233.816 91.0126C237.92 90.8945 242.006 91.5952 245.833 93.0735C249.659 94.5518 253.149 96.7775 256.094 99.6191C259.04 102.461 261.382 105.86 262.983 109.617C264.583 113.374 265.409 117.411 265.411 121.491C265.414 125.57 264.593 129.608 262.997 133.367C261.401 137.126 259.063 140.528 256.121 143.373C253.179 146.218 249.692 148.448 245.867 149.931C242.042 151.414 237.957 152.12 233.853 152.006L234.024 145.907C237.307 145.997 240.575 145.433 243.635 144.247C246.695 143.06 249.484 141.276 251.838 139C254.192 136.724 256.062 134.002 257.339 130.995C258.615 127.988 259.272 124.758 259.27 121.494C259.268 118.231 258.608 115.001 257.327 111.995C256.047 108.99 254.173 106.27 251.817 103.997C249.46 101.724 246.669 99.9432 243.607 98.7606C240.546 97.578 237.277 97.0174 233.994 97.1119L233.816 91.0126Z" fill="#1A1A1A"/>
<path d="M233 450L233 225L233 -1.03392e-05" stroke="black" stroke-width="2"/>
<path d="M17.64 19.92C15.6933 19.0933 13.76 18.68 11.84 18.68C7.94667 18.68 6 20.12 6 23C6 24.2533 6.44 25.4267 7.32 26.52C8.2 27.5867 9.26667 28.5467 10.52 29.4C11.7733 30.2267 13.0267 31.08 14.28 31.96C15.5333 32.84 16.6 33.8933 17.48 35.12C18.36 36.3467 18.8 37.68 18.8 39.12C18.8 41.5467 17.9867 43.3867 16.36 44.64C14.7333 45.8667 12.48 46.48 9.6 46.48C6.74667 46.48 4.30667 45.7467 2.28 44.28L3.24 42.84C5.16 44.0933 7.26667 44.72 9.56 44.72C11.8533 44.72 13.6133 44.2667 14.84 43.36C16.0667 42.4267 16.68 41.0933 16.68 39.36C16.68 38.16 16.24 37.0267 15.36 35.96C14.48 34.8667 13.4133 33.8933 12.16 33.04C10.9067 32.16 9.65333 31.2667 8.4 30.36C7.14667 29.4533 6.08 28.3733 5.2 27.12C4.32 25.8667 3.88 24.52 3.88 23.08C3.88 21.1867 4.57333 19.6933 5.96 18.6C7.37333 17.48 9.26667 16.92 11.64 16.92C14.04 16.92 16.2667 17.4 18.32 18.36L17.64 19.92ZM33.955 37L30.235 46H28.355L39.235 19.88H40.315L51.275 46H49.235L45.475 37H33.955ZM39.675 22.84C39.275 24.04 38.915 25.04 38.595 25.84L34.595 35.44H44.835L40.875 25.88C40.2617 24.3867 39.8617 23.3733 39.675 22.84ZM62.5422 46V20.04H64.3822V44.32H76.3022V46H62.5422ZM88.69 21.68H79.89V20.04H99.29V21.68H90.49V46H88.69V21.68ZM148.688 35H150.248C150.195 37.48 149.488 39.6533 148.128 41.52L152.288 46H149.888L146.968 42.84C145.688 43.96 144.221 44.84 142.568 45.48C140.915 46.12 139.315 46.44 137.768 46.44C135.181 46.44 133.155 45.9067 131.688 44.84C130.248 43.7467 129.528 42.2267 129.528 40.28C129.528 38.3333 130.101 36.6933 131.248 35.36C132.395 34 134.008 32.6133 136.088 31.2C132.915 27.7867 131.328 25.16 131.328 23.32C131.328 21.48 131.928 20.04 133.128 19C134.328 17.9333 136.075 17.4 138.368 17.4C140.661 17.4 142.381 17.9467 143.528 19.04C144.675 20.1067 145.248 21.4 145.248 22.92C145.248 24.4133 144.675 25.8267 143.528 27.16C142.381 28.4933 140.795 29.9467 138.768 31.52L147.048 40.36C147.501 39.8267 147.888 39.0133 148.208 37.92C148.528 36.8267 148.688 35.8533 148.688 35ZM138.008 44.88C140.701 44.88 143.301 43.8 145.808 41.64L137.288 32.52C133.341 34.92 131.368 37.32 131.368 39.72C131.368 41.3467 131.941 42.6133 133.088 43.52C134.235 44.4267 135.875 44.88 138.008 44.88ZM143.448 23.24C143.448 21.9067 143.008 20.8667 142.128 20.12C141.275 19.3733 140.061 19 138.488 19C134.915 19 133.128 20.4133 133.128 23.24C133.128 23.9867 133.355 24.8 133.808 25.68C134.288 26.5333 134.795 27.2667 135.328 27.88C135.861 28.4667 136.608 29.24 137.568 30.2C141.488 27.6133 143.448 25.2933 143.448 23.24ZM191.789 39.08L200.069 17.96H201.229L208.469 39.24C209.029 40.92 209.403 42.1333 209.589 42.88C209.803 42 210.176 40.8 210.709 39.28L218.069 17.4H220.069L210.109 46.24H208.989L201.589 25.04C201.483 24.6933 201.363 24.3467 201.229 24C201.123 23.6533 201.029 23.3467 200.949 23.08C200.869 22.8133 200.789 22.5867 200.709 22.4L200.549 21.92C200.523 21.7867 200.509 21.7067 200.509 21.68C200.189 22.64 199.776 23.7467 199.269 25L190.909 46.24H189.789L179.749 17.4H181.869L189.189 38.92C189.536 39.88 189.816 40.7467 190.029 41.52C190.269 42.2933 190.403 42.72 190.429 42.8C190.563 42.1867 191.016 40.9467 191.789 39.08ZM251.925 46V19.88H252.805L269.845 39.48C270.458 40.1733 271.018 40.8667 271.525 41.56C272.058 42.2267 272.338 42.5733 272.365 42.6C272.312 41.96 272.285 40.7067 272.285 38.84V20.04H274.125V46.16H273.245L255.885 26.24L253.685 23.56C253.738 24.0933 253.765 25.3467 253.765 27.32V46H251.925ZM298.042 44.64C301.455 44.64 304.189 43.72 306.242 41.88C308.322 40.04 309.362 37.2667 309.362 33.56C309.362 29.8533 308.189 26.9067 305.842 24.72C303.522 22.5333 300.655 21.44 297.242 21.44C294.815 21.44 292.949 21.4933 291.642 21.6V44.36C293.242 44.5467 295.375 44.64 298.042 44.64ZM297.242 19.8C301.242 19.8 304.575 21.04 307.242 23.52C309.935 25.9733 311.282 29.32 311.282 33.56C311.282 37.8 310.042 40.9867 307.562 43.12C305.109 45.2533 301.935 46.32 298.042 46.32C295.349 46.32 292.575 46.1867 289.722 45.92V20.04C291.855 19.88 294.362 19.8 297.242 19.8Z" fill="black"/>
</svg>
