<svg width="198" height="450" viewBox="0 0 198 450" fill="none" xmlns="http://www.w3.org/2000/svg">
<path d="M96.0536 178.031C84.0217 178.381 72.2624 181.674 61.8173 187.618C51.3722 193.562 42.5636 201.974 36.1719 212.108C29.7802 222.243 26.0026 233.787 25.1737 245.719C24.3449 257.65 26.4903 269.601 31.4201 280.512C36.3498 291.423 43.9116 300.957 53.4358 308.271C62.9599 315.584 74.1524 320.451 86.0217 322.44C97.8911 324.429 110.071 323.479 121.482 319.674C132.894 315.869 143.185 309.326 151.444 300.625L146.119 295.636C138.686 303.466 129.424 309.355 119.154 312.779C108.883 316.204 97.9215 317.059 87.2391 315.269C76.5566 313.479 66.4834 309.099 57.9117 302.516C49.34 295.934 42.5343 287.353 38.0976 277.533C33.6608 267.713 31.7299 256.958 32.4759 246.219C33.2218 235.481 36.6217 225.091 42.3742 215.97C48.1268 206.849 56.0545 199.278 65.4551 193.929C74.8557 188.579 85.4391 185.616 96.2677 185.301L96.0536 178.031Z" fill="#1A1A1A"/>
<path d="M96.0498 153.041C109.27 152.661 122.433 154.918 134.76 159.68C147.087 164.442 158.327 171.612 167.817 180.766C177.306 189.92 184.852 200.872 190.007 212.974C195.162 225.076 197.822 238.082 197.83 251.223C197.838 264.364 195.194 277.374 190.053 289.482C184.913 301.59 177.381 312.55 167.903 321.716C158.424 330.881 147.192 338.064 134.871 342.841C122.55 347.618 109.39 349.891 96.1692 349.527L96.3614 342.649C108.657 342.989 120.896 340.875 132.354 336.432C143.813 331.99 154.259 325.309 163.073 316.785C171.888 308.262 178.893 298.068 183.674 286.808C188.454 275.547 190.914 263.448 190.906 251.227C190.899 239.006 188.425 226.91 183.631 215.655C178.836 204.401 171.819 194.215 162.994 185.702C154.169 177.189 143.715 170.521 132.251 166.092C120.787 161.664 108.545 159.564 96.2503 159.918L96.0498 153.041Z" fill="#1A1A1A"/>
<path d="M97.8161 91.0126C101.92 90.8945 106.006 91.5952 109.833 93.0735C113.659 94.5518 117.149 96.7775 120.094 99.6191C123.04 102.461 125.382 105.86 126.983 109.617C128.583 113.374 129.409 117.411 129.411 121.491C129.414 125.57 128.593 129.608 126.997 133.367C125.401 137.126 123.063 140.528 120.121 143.373C117.179 146.218 113.692 148.448 109.867 149.931C106.042 151.414 101.957 152.12 97.8532 152.006L98.0237 145.907C101.307 145.997 104.575 145.433 107.635 144.247C110.695 143.06 113.484 141.276 115.838 139C118.192 136.724 120.062 134.002 121.339 130.995C122.615 127.988 123.272 124.758 123.27 121.494C123.268 118.231 122.608 115.001 121.327 111.995C120.047 108.99 118.173 106.27 115.817 103.997C113.46 101.724 110.669 99.9432 107.607 98.7606C104.546 97.578 101.277 97.0174 97.994 97.1119L97.8161 91.0126Z" fill="#1A1A1A"/>
<path d="M97 450L97 225L97 -1.03392e-05" stroke="black" stroke-width="2"/>
</svg>
